<svg width="300" height="300" viewBox="0 0 300 300" fill="none" xmlns="http://www.w3.org/2000/svg">
<path d="M240.001 0C273.138 0 300.001 26.8629 300.001 60V240.001C300.001 273.138 273.138 300.001 240.001 300.001H60C26.8629 300.001 0 273.138 0 240.001V60C2.96392e-05 26.8629 26.8629 0 60 0H240.001ZM76.0566 64.7891V95.9717H89.7764V205.616H76.0566V236.685H142.048C149.908 236.684 157.449 235.664 164.668 233.623C171.887 231.582 178.615 228.691 184.851 224.949C191.086 221.207 196.755 216.709 201.857 211.456C206.96 206.203 211.325 200.382 214.953 193.995C218.581 187.608 221.378 180.747 223.344 173.415C225.309 166.083 226.292 158.448 226.292 150.511C226.292 142.574 225.309 134.938 223.344 127.605C221.379 120.273 218.582 113.433 214.953 107.083C211.325 100.733 206.959 94.9692 201.857 89.791C196.756 84.6129 191.087 80.1717 184.851 76.4678C178.614 72.7639 171.887 69.8915 164.668 67.8506C157.449 65.8096 149.908 64.7891 142.047 64.7891H76.0566ZM141.82 95.9766C147.943 95.9763 153.725 97.3748 159.168 100.172C164.61 102.969 169.335 106.824 173.341 111.737C177.347 116.65 180.522 122.432 182.865 129.084C185.209 135.736 186.38 142.88 186.38 150.515C186.38 158.225 185.209 165.425 182.865 172.115C180.522 178.805 177.347 184.625 173.341 189.576C169.335 194.527 164.61 198.439 159.168 201.312C153.725 204.184 147.942 205.62 141.819 205.62H127.42V95.9756L141.82 95.9766Z" fill="#4DCFA3"/>
</svg>
